<?xml version="1.0" encoding="UTF-8"?>
<svg version="1.1" xmlns="http://www.w3.org/2000/svg" width="512" height="512">
<path d="M0 0 C0.88450836 0.00054382 1.76901672 0.00108765 2.68032837 0.00164795 C16.67598777 0.04116987 30.0125135 0.89145879 43.625 4.375 C44.52686035 4.59994141 45.4287207 4.82488281 46.35791016 5.05664062 C70.06482627 11.08825832 92.80925505 20.87360605 112.625 35.375 C113.64207031 36.10847656 114.65914063 36.84195313 115.70703125 37.59765625 C121.96845082 42.20847647 127.80132588 47.21146042 133.5 52.5 C134.40939331 53.34232178 134.40939331 53.34232178 135.3371582 54.20166016 C164.62300712 81.86074062 183.48926066 119.99144381 190.625 159.375 C190.80232666 160.29466553 190.97965332 161.21433105 191.16235352 162.16186523 C192.82533002 171.60612122 192.98164305 180.88046828 192.9375 190.4375 C192.93476578 191.66447098 192.93476578 191.66447098 192.93197632 192.91622925 C192.88553005 205.29801817 192.34754836 217.25483638 189.625 229.375 C189.45871094 230.15407715 189.29242188 230.9331543 189.12109375 231.73583984 C180.45884205 271.68646549 162.32300496 310.81891803 140.625 345.375 C139.67445947 346.90884196 138.72393966 348.44269676 137.7734375 349.9765625 C127.27853401 366.81797685 116.22203676 383.2737411 104.625 399.375 C103.79331299 400.52983887 103.79331299 400.52983887 102.94482422 401.70800781 C95.28448922 412.30664234 87.3434004 422.60479208 79.01464844 432.68554688 C77.11058405 435.00039676 75.24108867 437.34198144 73.375 439.6875 C62.72795125 453.01849229 51.79149113 466.05949025 40.203125 478.58203125 C37.8421481 481.13975623 35.50931152 483.71925368 33.1875 486.3125 C31.66781733 488.0010363 30.14688681 489.68845003 28.625 491.375 C28.15416992 491.89771484 27.68333984 492.42042969 27.19824219 492.95898438 C9.93842645 512.07242663 9.93842645 512.07242663 4.015625 512.61328125 C2.97921875 512.63777344 1.9428125 512.66226563 0.875 512.6875 C-0.15109375 512.72488281 -1.1771875 512.76226563 -2.234375 512.80078125 C-8.68895521 511.92572 -12.95134934 507.10039492 -17.3125 502.625 C-17.84117676 502.08915283 -18.36985352 501.55330566 -18.91455078 501.0012207 C-22.18353043 497.66445116 -25.31802926 494.24717146 -28.34375 490.6875 C-31.23018614 487.40140347 -34.24858929 484.24338789 -37.25 481.0625 C-42.16425506 475.83920882 -46.82011661 470.52611328 -51.296875 464.921875 C-53.43218453 462.3049167 -55.66030363 459.80657221 -57.9375 457.3125 C-61.49264182 453.4024559 -64.83717026 449.38582317 -68.10546875 445.234375 C-69.79803628 443.10191471 -71.50649742 440.99078894 -73.23828125 438.890625 C-81.95896812 428.30083142 -90.23431 417.41538488 -98.375 406.375 C-99.20233643 405.25786621 -99.20233643 405.25786621 -100.04638672 404.11816406 C-109.61202547 391.17590427 -118.57126944 377.84466183 -127.375 364.375 C-127.92575195 363.53291992 -128.47650391 362.69083984 -129.04394531 361.82324219 C-148.2675653 332.28274526 -165.58444159 300.65946932 -177.375 267.375 C-177.69259277 266.49875977 -178.01018555 265.62251953 -178.33740234 264.71972656 C-181.86305539 254.94446166 -184.84912731 245.12796682 -187.1875 235 C-187.3824707 234.15751709 -187.57744141 233.31503418 -187.77832031 232.44702148 C-190.76885996 218.76675302 -191.78557382 205.32712443 -191.75 191.375 C-191.74945618 190.56651611 -191.74891235 189.75803223 -191.74835205 188.92504883 C-191.70672419 175.40565187 -190.67907213 162.5317557 -187.375 149.375 C-187.15005859 148.46878906 -186.92511719 147.56257812 -186.69335938 146.62890625 C-180.66012037 122.92808306 -170.87286557 100.18592352 -156.375 80.375 C-155.64152344 79.35792969 -154.90804687 78.34085937 -154.15234375 77.29296875 C-149.54152353 71.03154918 -144.53853958 65.19867412 -139.25 59.5 C-138.40767822 58.59060669 -138.40767822 58.59060669 -137.54833984 57.6628418 C-109.88371352 28.37112083 -71.7612925 9.52273092 -32.375 2.375 C-31.47056152 2.19839844 -30.56612305 2.02179687 -29.63427734 1.83984375 C-19.76251048 0.08681079 -9.99408911 -0.02310934 0 0 Z " fill="#2196F3" transform="translate(255.375,-0.375)"/>
<path d="M0 0 C2.41171507 -0.00524461 4.82342809 -0.01152413 7.23513794 -0.01878357 C12.27323098 -0.02915174 17.31104095 -0.0246782 22.34912109 -0.01000977 C28.76982701 0.00716442 35.18963682 -0.01632076 41.61024284 -0.05149937 C46.58633224 -0.073578 51.56221072 -0.07200643 56.53833389 -0.06373405 C58.9039521 -0.06292012 61.26958667 -0.06967538 63.63515854 -0.08450508 C82.65416443 -0.18547169 98.32279021 1.36180865 112.8828125 14.81640625 C133.51907607 36.69466717 126.1953125 69.09984795 126.1953125 96.56640625 C62.8353125 96.56640625 -0.5246875 96.56640625 -65.8046875 96.56640625 C-65.8046875 28.9812248 -65.8046875 28.9812248 -52.0546875 14.31640625 C-36.87180587 0.0806609 -19.64396376 -0.05216769 0 0 Z " fill="#F9F9F9" transform="translate(225.8046875,191.43359375)"/>
<path d="M0 0 C2.26187413 1.66337135 4.26290102 3.40111247 6.2734375 5.359375 C6.97984375 6.03871094 7.68625 6.71804687 8.4140625 7.41796875 C18.29608355 17.68429062 21.92453393 30.26613329 21.71484375 44.2734375 C20.88390722 55.07300752 15.76131259 65.6557998 8.2734375 73.359375 C7.60570312 74.06578125 6.93796875 74.7721875 6.25 75.5 C0.62691582 80.98098458 -5.36612418 83.79663129 -12.7265625 86.359375 C-13.69078125 86.72546875 -14.655 87.0915625 -15.6484375 87.46875 C-27.05791654 90.76996982 -39.02935594 88.05490883 -49.4765625 83.0390625 C-61.94950725 76.08007198 -69.88774826 65.20454351 -74.03125 51.625 C-76.96646286 37.83939352 -74.02909627 24.38290835 -66.4140625 12.63671875 C-50.43547589 -8.92697568 -22.67395921 -13.64335655 0 0 Z " fill="#F8F9F9" transform="translate(282.7265625,71.640625)"/>
</svg>
